Coordinates
version=1
nRows=27
nColumns=38
inDegrees=no

Units are S.I. units (second, meters, Newtons, ...)
If the header above contains a line with 'inDegrees', this indicates whether rotational values are in degrees (yes) or radians (no).

endheader
time	pelvis_tilt	pelvis_list	pelvis_rotation	pelvis_tx	pelvis_ty	pelvis_tz	hip_flexion_r	hip_adduction_r	hip_rotation_r	knee_angle_r	ankle_angle_r	subtalar_angle_r	mtp_angle_r	hip_flexion_l	hip_adduction_l	hip_rotation_l	knee_angle_l	ankle_angle_l	subtalar_angle_l	mtp_angle_l	lumbar_extension	lumbar_bending	lumbar_rotation	arm_flex_r	arm_add_r	arm_rot_r	elbow_flex_r	pro_sup_r	wrist_flex_r	wrist_dev_r	arm_flex_l	arm_add_l	arm_rot_l	elbow_flex_l	pro_sup_l	wrist_flex_l	wrist_dev_l
0.55	0.0971103	0.0889471	-0.0225689	0.72897	0.960028	-0.301257	0.473458	-0.154751	-0.0673975	-1.79549	-0.0383346	-0.0290223	-0.00231454	-0.120657	0.173097	-0.00274087	-0.655014	0.40107	0.0040637	-0.0435967	-0.409304	-0.1412	-0.0977079	-0.615897	-0.329151	-0.281749	1.58006	1.31536	0.0144776	-0.0516297	0.0193018	-0.437001	-0.125594	1.59268	1.81442	0.0661847	-0.0523579
0.56	0.0916001	0.0640861	-0.0226786	0.730921	0.963779	-0.300825	0.527862	-0.118608	-0.0754628	-1.72453	-0.0105974	-0.0290223	-0.00231454	-0.209647	0.142221	-0.00140267	-0.569252	0.329182	0.0040637	-0.0435967	-0.398492	-0.11255	-0.110767	-0.655376	-0.315481	-0.291758	1.59222	1.31811	0.0144776	-0.0516297	0.0416797	-0.430718	-0.124279	1.63178	1.80979	0.0661847	-0.0523579
0.57	0.0844125	0.0385011	-0.0227377	0.733569	0.967623	-0.300393	0.573451	-0.0814212	-0.0845913	-1.63563	0.0138078	-0.0290223	-0.00231454	-0.293536	0.110103	-0.00596661	-0.48431	0.236299	0.0040637	-0.0435967	-0.384614	-0.0823994	-0.122788	-0.694928	-0.302534	-0.304265	1.60804	1.32133	0.0144776	-0.0516297	0.0567585	-0.424599	-0.121302	1.67616	1.80466	0.0661847	-0.0523579
0.58	0.0756073	0.0138456	-0.0229021	0.736704	0.971364	-0.299942	0.609667	-0.0449239	-0.0925891	-1.52933	0.0352607	-0.0290223	-0.00231454	-0.368911	0.0789574	-0.0156205	-0.407217	0.128036	0.0040637	-0.0435967	-0.368206	-0.0526959	-0.133976	-0.732574	-0.290327	-0.318049	1.62525	1.32435	0.0144776	-0.0516297	0.0657337	-0.419484	-0.115365	1.72355	1.79967	0.0661847	-0.0523579
0.59	0.0654472	-0.00817323	-0.0232374	0.740061	0.974846	-0.299495	0.636187	-0.0111414	-0.0976289	-1.40681	0.0545524	-0.0290223	-0.00231454	-0.43294	0.0510294	-0.0285604	-0.344777	0.0114875	0.0040637	-0.0435967	-0.350127	-0.0254187	-0.144505	-0.766365	-0.278757	-0.332011	1.64178	1.32666	0.0144776	-0.0516297	0.0700231	-0.415959	-0.105466	1.77161	1.79534	0.0661847	-0.0523579
0.6	0.0544434	-0.0260056	-0.0236851	0.743386	0.977949	-0.299127	0.652927	0.0178583	-0.0985237	-1.2703	0.0726663	-0.0290223	-0.00231454	-0.483667	0.0282858	-0.0423021	-0.302956	-0.105538	0.0040637	-0.0435967	-0.331515	-0.00231558	-0.154483	-0.794608	-0.267662	-0.345306	1.656	1.32794	0.0144776	-0.0516297	0.0710729	-0.414283	-0.0910219	1.81801	1.79201	0.0661847	-0.0523579
0.61	0.0433633	-0.0384924	-0.0240847	0.746467	0.980578	-0.298956	0.660084	0.0403583	-0.0948139	-1.12349	0.0903729	-0.0290223	-0.00231454	-0.52019	0.0120964	-0.0542319	-0.286337	-0.215437	0.0040637	-0.0435967	-0.313724	0.0153539	-0.163905	-0.816048	-0.256915	-0.357384	1.66687	1.32804	0.0144776	-0.0516297	0.0701681	-0.414384	-0.0719364	1.86063	1.7898	0.0661847	-0.0523579
0.62	0.0331874	-0.0450795	-0.0242437	0.749153	0.982674	-0.29908	0.658197	0.055383	-0.0867148	-0.971774	0.107852	-0.0290223	-0.00231454	-0.542674	0.00299245	-0.0622637	-0.297765	-0.311784	0.0040637	-0.0435967	-0.298251	0.0270026	-0.172586	-0.829971	-0.246511	-0.367965	1.67398	1.32697	0.0144776	-0.0516297	0.0682817	-0.415913	-0.0486057	1.89768	1.7885	0.0661847	-0.0523579
0.63	0.0250479	-0.045978	-0.0240325	0.751315	0.984161	-0.299527	0.648161	0.0629452	-0.0750495	-0.822196	0.12457	-0.0290223	-0.00231454	-0.552247	0.00051974	-0.0654288	-0.338174	-0.390183	0.0040637	-0.0435967	-0.286649	0.0328062	-0.180125	-0.836215	-0.23664	-0.376968	1.6775	1.32485	0.0144776	-0.0516297	0.0659885	-0.418336	-0.0218773	1.92776	1.78766	0.0661847	-0.0523579
0.64	0.0201189	-0.0421632	-0.023473	0.75296	0.985104	-0.300255	0.631235	0.0640767	-0.0612025	-0.682945	0.139433	-0.0290223	-0.00231454	-0.550729	0.00322718	-0.064211	-0.406619	-0.448819	0.0040637	-0.0435967	-0.280379	0.0336845	-0.185897	-0.835098	-0.227712	-0.384418	1.67808	1.32187	0.0144776	-0.0516297	0.0634492	-0.421055	0.00703039	1.94996	1.78665	0.0661847	-0.0523579
0.65	0.0194115	-0.0352673	-0.0227808	0.754097	0.985568	-0.301132	0.60897	0.0606785	-0.0469815	-0.562406	0.151075	-0.0290223	-0.00231454	-0.540294	0.00881343	-0.0605012	-0.500443	-0.488526	0.0040637	-0.0435967	-0.280619	0.0311486	-0.189103	-0.827275	-0.220345	-0.390365	1.67661	1.31833	0.0144776	-0.0516297	0.0604643	-0.42351	0.0366479	1.96373	1.78491	0.0661847	-0.0523579
0.66	0.0235659	-0.0273336	-0.0223408	0.754733	0.985606	-0.301984	0.583071	0.0552413	-0.0343052	-0.467953	0.158227	-0.0290223	-0.00231454	-0.523094	0.0144348	-0.0571165	-0.615566	-0.512249	0.0040637	-0.0435967	-0.288044	0.0270507	-0.18889	-0.813574	-0.215281	-0.394824	1.67405	1.31454	0.0144776	-0.0516297	0.0565837	-0.425249	0.0654099	1.96883	1.78213	0.0661847	-0.0523579
0.67	0.0326704	-0.0204834	-0.0226144	0.754862	0.985232	-0.302628	0.555205	0.0504485	-0.0247692	-0.404815	0.160158	-0.0290223	-0.00231454	-0.500918	0.0171728	-0.0569823	-0.746861	-0.523978	0.0040637	-0.0435967	-0.302634	0.0232719	-0.184505	-0.794834	-0.213284	-0.397748	1.67121	1.31089	0.0144776	-0.0516297	0.0512438	-0.42596	0.0918309	1.96518	1.77842	0.0661847	-0.0523579
0.68	0.0461525	-0.0165495	-0.0240059	0.754483	0.984406	-0.302928	0.526837	0.0487255	-0.0192477	-0.375338	0.157188	-0.0290223	-0.00231454	-0.474915	0.0145849	-0.0622087	-0.888653	-0.527474	0.0040637	-0.0435967	-0.323561	0.0214152	-0.17546	-0.771786	-0.215021	-0.399012	1.66862	1.30774	0.0144776	-0.0516297	0.0439057	-0.425452	0.114669	1.95273	1.77432	0.0661847	-0.0523579
0.69	0.0628415	-0.0167828	-0.0267376	0.753638	0.983034	-0.302833	0.499127	0.0518356	-0.0176873	-0.378787	0.151141	-0.0290223	-0.00231454	-0.445422	0.00521042	-0.0734082	-1.03524	-0.525307	0.0040637	-0.0435967	-0.349215	0.0225809	-0.161665	-0.744995	-0.220966	-0.398423	1.66642	1.30538	0.0144776	-0.0516297	0.0341735	-0.4236	0.133045	1.93141	1.7708	0.0661847	-0.0523579
0.7	0.0811285	-0.0217243	-0.0307569	0.752414	0.98098	-0.302377	0.472842	0.0606183	-0.0191747	-0.41162	0.145464	-0.0290223	-0.00231454	-0.411965	-0.0111054	-0.0894785	-1.18137	-0.51856	0.0040637	-0.0435967	-0.377415	0.0272531	-0.143475	-0.714848	-0.231346	-0.395749	1.6644	1.304	0.0144776	-0.0516297	0.0218732	-0.420298	0.146488	1.9011	1.76902	0.0661847	-0.0523579
0.71	0.0992242	-0.0311831	-0.0357099	0.750871	0.978249	-0.301678	0.448209	0.074916	-0.0222598	-0.468011	0.144803	-0.0290223	-0.00231454	-0.373438	-0.0331798	-0.107879	-1.32253	-0.507223	0.0040637	-0.0435967	-0.40575	0.0353302	-0.121662	-0.681615	-0.2461	-0.39079	1.66212	1.30365	0.0144776	-0.0516297	0.00707487	-0.415434	0.154918	1.86181	1.77014	0.0661847	-0.0523579
0.72	0.115501	-0.0443165	-0.040976	0.749141	0.974932	-0.300898	0.424739	0.0936597	-0.0254014	-0.540477	0.153932	-0.0290223	-0.00231454	-0.328454	-0.0587442	-0.125282	-1.45508	-0.490932	0.0040637	-0.0435967	-0.431969	0.0462365	-0.0973205	-0.645572	-0.264876	-0.383465	1.65907	1.30422	0.0144776	-0.0516297	-0.00995586	-0.408927	0.158579	1.81387	1.77503	0.0661847	-0.0523579
0.73	0.12881	-0.0597714	-0.0457578	0.74738	0.97132	-0.300204	0.401086	0.115045	-0.027334	-0.620544	0.176369	-0.0290223	-0.00231454	-0.275795	-0.0848572	-0.138368	-1.57613	-0.469596	0.0040637	-0.0435967	-0.45433	0.0590294	-0.0717333	-0.607162	-0.287044	-0.373918	1.6549	1.30545	0.0144776	-0.0516297	-0.0288777	-0.400803	0.15793	1.75818	1.78415	0.0661847	-0.0523579
0.74	0.138656	-0.0758406	-0.0492158	0.745722	0.967762	-0.299738	0.375097	0.136746	-0.0272245	-0.699534	0.213207	-0.0290223	-0.00231454	-0.214862	-0.108338	-0.144559	-1.68339	-0.443652	0.0040637	-0.0435967	-0.471812	0.0724527	-0.0462367	-0.567157	-0.311731	-0.362617	1.6497	1.307	0.0144776	-0.0516297	-0.0494426	-0.391293	0.153528	1.69649	1.79746	0.0661847	-0.0523579
0.75	0.145184	-0.0905733	-0.0506529	0.744234	0.96451	-0.299596	0.344109	0.156167	-0.0246504	-0.769424	0.262622	-0.0290223	-0.00231454	-0.145977	-0.126172	-0.142579	-1.77495	-0.413948	0.0040637	-0.0435967	-0.48416	0.0849829	-0.0220609	-0.526769	-0.337875	-0.350404	1.64411	1.30852	0.0144776	-0.0516297	-0.071665	-0.380899	0.145927	1.63155	1.81443	0.0661847	-0.0523579
0.76	0.149029	-0.101934	-0.0497081	0.742953	0.961751	-0.299848	0.305477	0.170716	-0.019534	-0.82366	0.320161	-0.0290223	-0.00231454	-0.0704592	-0.13588	-0.132764	-1.84921	-0.381465	0.0040637	-0.0435967	-0.491728	0.0948875	-0.000160542	-0.487642	-0.364303	-0.338484	1.63933	1.30973	0.0144776	-0.0516297	-0.095934	-0.3704	0.135608	1.56705	1.83392	0.0661847	-0.0523579
0.77	0.151052	-0.10803	-0.0465034	0.741966	0.959675	-0.300506	0.257164	0.178083	-0.0121413	-0.857725	0.379536	-0.0290223	-0.00231454	0.00955933	-0.135836	-0.117068	-1.90481	-0.347087	0.0040637	-0.0435967	-0.495192	0.100344	0.0189395	-0.45169	-0.38982	-0.328303	1.63694	1.31045	0.0144776	-0.0516297	-0.123024	-0.360761	0.12293	1.5073	1.85428	0.0661847	-0.0523579
0.78	0.152053	-0.107379	-0.0416818	0.741408	0.958453	-0.301485	0.198201	0.176504	-0.0031436	-0.869344	0.433605	-0.0290223	-0.00231454	0.0914889	-0.125518	-0.098722	-1.94072	-0.311517	0.0040637	-0.0435967	-0.495253	0.0996472	0.0352227	-0.420823	-0.413311	-0.321316	1.6386	1.31068	0.0144776	-0.0516297	-0.153986	-0.352965	0.108102	1.45669	1.87336	0.0661847	-0.0523579
0.79	0.152532	-0.0990885	-0.0363127	0.741424	0.958194	-0.302648	0.128875	0.164986	0.00634138	-0.858355	0.475291	-0.0290223	-0.00231454	0.172664	-0.105608	-0.0816186	-1.95625	-0.275317	0.0040637	-0.0435967	-0.492451	0.0914845	0.0491384	-0.396604	-0.433869	-0.318684	1.64563	1.31057	0.0144776	-0.0516297	-0.189937	-0.347783	0.0911526	1.41899	1.88894	0.0661847	-0.0523579
0.8	0.15266	-0.0830229	-0.0316617	0.742151	0.958917	-0.303871	0.0506373	0.143423	0.0147955	-0.826353	0.498355	-0.0290223	-0.00231454	0.250626	-0.077878	-0.0695524	-1.95109	-0.238989	0.0040637	-0.0435967	-0.487116	0.0751735	0.0614362	-0.379956	-0.4509	-0.320982	1.65876	1.31035	0.0144776	-0.0516297	-0.231802	-0.345567	0.0719223	1.39682	1.89911	0.0661847	-0.0523579
0.81	0.152375	-0.0598392	-0.028904	0.743692	0.960562	-0.305059	-0.0342099	0.112614	0.0204576	-0.776274	0.498006	-0.0290223	-0.00231454	0.323234	-0.0448789	-0.065494	-1.92524	-0.203028	0.0040637	-0.0435967	-0.479459	0.0508251	0.0729306	-0.370983	-0.464202	-0.328044	1.67796	1.31032	0.0144776	-0.0516297	-0.280057	-0.346102	0.0501014	1.39116	1.90263	0.0661847	-0.0523579
